<?xml version="1.0" standalone="no"?>
<!DOCTYPE svg PUBLIC "-//W3C//DTD SVG 20010904//EN" "http://www.w3.org/TR/2001/REC-SVG-20010904/DTD/svg10.dtd">
<!-- Created using Krita: https://krita.org -->
<svg xmlns="http://www.w3.org/2000/svg" 
    xmlns:xlink="http://www.w3.org/1999/xlink"
    xmlns:krita="http://krita.org/namespaces/svg/krita"
    xmlns:sodipodi="http://sodipodi.sourceforge.net/DTD/sodipodi-0.dtd"
    width="420.96pt"
    height="595.2pt"
    viewBox="0 0 420.96 595.2">
<defs/>
<path id="shape0" transform="translate(74.3528995077609, 126.351467763213)" fill="none" stroke="#000000" stroke-width="2.88" stroke-linecap="square" stroke-linejoin="bevel" d="M89.8169 6.06533C-6.46004 -26.027 -34.5795 77.0705 51.3079 131.726C124.961 178.596 216.912 108.163 142.513 33.7648"/><path id="shape1" transform="translate(127.783295363633, 134.260636306926)" fill="none" stroke="#f30000" stroke-width="2.88" stroke-linecap="square" stroke-linejoin="bevel" d="M64.0859 35.3139C-4.10111 73.1956 -35.1198 184.017 59.3568 135.978C78.407 126.291 102.254 115.676 114.08 96.1176C145.133 44.7609 75.0652 -29.6286 39.0889 12.3437"/><path id="shape2" transform="translate(104.239132922631, 56.7649904921069)" fill="none" stroke="#00f3df" stroke-width="2.88" stroke-linecap="square" stroke-linejoin="bevel" d="M78.8474 1.33626C33.4645 -10.0095 -28.6677 53.5588 14.6657 91.1905C45.0617 117.587 126.677 110.439 105.196 56.7351"/><rect id="shape3" transform="translate(88.4711918274688, 310.124404086266)" fill="none" stroke="#00f3df" stroke-width="2.88" stroke-linecap="square" stroke-linejoin="bevel" width="123.36" height="86.4"/><rect id="shape4" transform="translate(151.92, 348.72)" fill="#cccccc" fill-rule="evenodd" stroke="#00f3df" stroke-width="2.88" stroke-linecap="square" stroke-linejoin="bevel" width="71.04" height="69.36"/><path id="shape5" transform="translate(415.920000385321, 131.039989981656)" fill="none" stroke="#000000" stroke-width="2.88" stroke-linecap="square" stroke-linejoin="miter" stroke-miterlimit="2" d="M0 0L0 359.428"/><path id="shape6" transform="translate(244.079981339458, 239.039981724779)" fill="none" stroke="#000000" stroke-width="2.88" stroke-linecap="square" stroke-linejoin="miter" stroke-miterlimit="2" d="M0 58.56L290.16 0"/>
</svg>
